/* XPM */
static char *_64cc51d118c49d4dbb9a071dc063908PSqKmwTCu2gKZ9Dx[] = {
/* columns rows colors chars-per-pixel */
"576 24 9 1 ",
"  c None",
". c #4A3B1F",
"X c #E5AB3D",
"o c #FDC760",
"O c #2379EA",
"+ c #0094FF",
"@ c #D8B78F",
"# c #FFD7A8",
"$ c white",
/* pixels */
"                                                                                                                                                                                                                                                                                                                                                                                                                                                                                                                                                                                                ",
"                                                                                                                                                                                                                                                                                                                                                                                                                                                                                                                                                                                                ",
"                                                                                                                                                                                                                                                                                                                                                                                                                                                                                                                                                                                                ",
"                                                                                                                                                                                                                                                                                                         .........                                       .........                                                                                                                                                                                                                              ",
"      ............            ............                                    ............            ............                                    ............            ............                                    ............            ............             .........              ...XXooooooo.           ............            ...XXooooooo.            $$$$$$$$$               .........                                                                                                                                                                                ",
"     ..XXXXooooooo.          ..XXXXooooooo.           ............           ..XXXXooooooo.          ..XXXXooooooo.           ............           ..XXXXooooooo.          ..XXXXooooooo.           ............           ..XXXXooooooo.          ..XXXXooooooo.         ...XXooooooo.            ..XXXXXooXXXo.          ..XXXXooooooo.          ..X...XooXXXo.         $$$$$$$$$$$$$           ...XXooooooo.                                                                                                                                                                               ",
"    .O.XXXXXooXXXo.         .O.XXXXXooXXXo.          ..XXXXooooooo.         .O.XXXXXooXXXo.         .O.XXXXXooXXXo.          ..XXXXooooooo.         .O.XXXXXooXXXo.         .O.XXXXXooXXXo.          ..XXXXooooooo.         .O.XXXXXooXXXo.         .O.XXXXXooXXXo.        ..XXXXXooXXXo.           .O.X$$$Xo.ooo..         .O.XXXXXooXXXo.         .O..$$$.o.ooo..        $$$$$$$$$$$$$$          ..X...XooXXXo.                                        ..............                                  ..............          ..............                                  .............. ",
"    .O.X$$$Xo.ooo..         .O.X$$$Xo.ooo..         .O.XXXXXooXXXo.         .O.X$$$Xo.ooo..         .O.X$$$Xo.ooo..         .O.XXXXXooXXXo.         .O.X$$$Xo.ooo..         .O.X$$$Xo.ooo..         .O.XXXXXooXXXo.         .O.X$$$Xo.ooo..         .O.X$$$Xo.ooo..       .O.X$$$Xo.ooo..           .O.X$.$Xoooooo.         .O.X$$$Xo.ooo..         .O..$.$.oooooo.       $$$$$$$$$$$$$$$         .O..$$$.o.ooo..                ..............         ..O.XXXXooooooo.         ..............         ..O.XXXXooooooo.        ..O.XXXXooooooo.         ..............         ..O.XXXXooooooo.",
"    ...X$.$Xoooooo.         ...X$.$Xoooooo.         .O.X$$$Xo.ooo..         ...X$.$Xoooooo.         ...X$.$Xoooooo.         .O.X$$$Xo.ooo..         ...X$.$Xoooooo.         ...X$.$Xoooooo.         .O.X$$$Xo.ooo..         ...X$.$Xoooooo.         ...X$.$Xoooooo.       .O.X$.$Xoooooo.           ...X$$$Xoooooo.         ...X$.$Xoooooo.         ....$$$.oooooo.       $$$$$$$$$$$$$$$         .O..$.$.oooooo.               ..O.XXXXooooooo.        .O..XXXXXooXXXo.        ..O.XXXXooooooo.        .O..XXXXXooXXXo.        .O..XXXXXooXXXo.        ..O.XXXXooooooo.        .O..XXXXXooXXXo.",
"     .O.$$$Xoooooo.          .O.$$$Xoooooo.         ...X$.$Xoooooo.          .O.$$$Xoooooo.          .O.$$$Xoooooo.         ...X$.$Xoooooo.          .O.$$$Xoooooo.          .O.$$$Xoooooo.         ...X$.$Xoooooo.          .O.$$$Xoooooo.          .O.$$$Xoooooo.       ...X$$$Xoooooo.            .O.XXXooooooo.          .O.$$$Xoooooo.          .O..$.++ooooo.       $$$$$$$$$$$$$$$         ....$$$.oooooo.               .O..XXXXXooXXXo.         .O.X$$$Xo.ooo..        .O..XXXXXooXXXo.         .O.X$$$Xo.ooo..         .O.X$$$Xo.ooo..        .O..XXXXXooXXXo.         .O.X$$$Xo.ooo..",
"     .O.XXXXoooooo.          .O.XXXXoooooo.          .O.$$$Xoooooo.          .O.XXXXoooooo.          .O.XXXXoooooo.          .O.$$$Xoooooo.          .O.XXXXoooooo.          .O.XXXXoooooo.          .O.$$$Xoooooo.          .O.XXXXoooooo.          .O.XXXXoooooo.        .O.XXXooooooo.            .O.XXXXoooo...          .O.XXXXoooooo.          .O..$.Xoooo...        $$$$$$$$$$$$$$          .O..$.++ooooo.                .O.X$$$Xo.ooo..        .O..X$.$Xoooooo.         .O.X$$$Xo.ooo..        .O..X$.$Xoooooo.        .O..X$.$Xoooooo.         .O.X$$$Xo.ooo..        .O..X$.$Xoooooo.",
"     ...XXXXXo.....          ...XXXXXo.....          .O.XXXXoooooo.          ...XXXXXo.....          ...XXXXXo.....          .O.XXXXoooooo.          ...XXXXXo.....          ...XXXXXo.....          .O.XXXXoooooo.          ...XXXXXo.....          ...XXXXXo.....        .O.XXXXoooo...            ...XXXXXo..             ...XXXXXo.....          ...X.XXXo..           $$$$$$$$$$$$$$          .O..$.Xoooo...               .O..X$.$Xoooooo.        ....X$$$Xoooooo.        .O..X$.$Xoooooo.        ....X$$$Xoooooo.        ....X$$$Xoooooo.        .O..X$.$Xoooooo.        ....X$$$Xoooooo.",
"       ..XXoooo.               .XXXoooo.             ...XXXXXo.....            ..XXoooo.               ..XXoooo.             ...XXXXXo.....            ..XXoooo.               ..XXoooo.             ...XXXXXo.....            ..XXoooo.               ..XXoooo.           ....XXXXo..                 ..XXoooo.               ..XXoooo.               ..XXoooo.           $$$$$$$$$$$             .....XXXo..                  ....X$$$Xoooooo.          ..XXXXXoooooo.        ....X$$$Xoooooo.          ..XXXXXoooooo.          ..XXXXXoooooo.        ....X$$$Xoooooo.          ..XXXXXoooooo.",
"      . .X@####.                .XXoooo.               ..XXoooo.                .X@####.                .X@####.               ..XXoooo.                .X@####.                .X@####.               ..XXoooo.                .X@####.              . .X@####.              .X@####.                  .X@####.              . .X@####.                .X@####.              $$$$$$$$                .X@####.                .   ..XXXXXoooooo.      ....X..XXXX......           ..XXXXXoooooo.      ....X..XXXX......       ....X..XXXX......           ..XXXXXoooooo.      ....X..XXXX...... ",
"      ...X@####.                .X@####.                .X@####.              ...X@####.              ...X@####.                .X@####.              ...X@####.              ...X@####.                .X@####.              ...X@####.              ...X@####.               .X@####.                 .X@####.              ...X@####.                .X@####.               $$$$$$$$                .X@####.               ....X..XXXX......       .ooXXX@####.            ....X..XXXX......       .ooXXX@####.            .ooXXX@####.            ....X..XXXX......       .ooXXX@####.      ",
"      .ooX@####.               .oX@####.              ...X@####.              .ooX@####.              .ooX@####.                .X@####.              .ooX@####..             .ooX@####.                .X@####.              .ooX..###.              .ooX@####.             ..oX@####..              ..oX@####..             .ooX@####.              ..oX@####..            $$$$$$$$$$$             ..oX@####..              .ooXXX@####.             .XXX.@@@..             .ooXXX@####.             .XXX@@@@o.              .XXX@@@@..             .ooXXX@####.             .XXoo.@@..       ",
"      ..XXXo@@o.              .oXX@####.              .ooX@####.              ..XXXo@@o.              ..XXX.@@o.              ..oX@.###.              ..XXXo@@oo.             ..XXXo@@o.              ..oX@####.              ..XXoo.@o.              ..XXXo@@o.             .oXXXo@@oo.              .oXXXo@@oo.             ..XXXo@@o.              .oXXXo@@oo.            $$$$$$$$$$$             .oXXXo@@oo.               .XXX@@@@o.               .Xoo.oo.               .XXX.@@@..               .XooooXX.               .Xoooooo.              .XXX@@@@..               .XXX.oo.        ",
"       ..Xooooo.              ..XXXo@@o.              ..XXXo@@o.               ..Xooooo.               ..Xoo.oo.              .oXXoo.@o.               ..XooooXX.              ..Xoooooo.             .oXXo.@@o..              ..XXX.oo.               ..Xooooo.             ...Xoo.oXX.              ...XooooXX.              ..Xooooo.              ...XooooXX.            $$$$$$$$$$$             ...Xoo.oXX.                .Xooooo.                 .Xo...                 .Xoo.oo.                .Xo.....               .XXo...Xo.               .Xo.ooo..                ....o.         ",
"        .Xo..Xo.              . .Xooooo.               ..Xooooo.                .Xo..Xo.                 .Xo...               ...Xoo.Xo.                .Xo.....               .XXo...Xo.             ...XX.oooo.                ....o.                 .Xo..Xo.               .Xo.....                 .Xo.....                .Xo..Xo.                .Xo.....               $$$$$$$$                .Xo.....                 .Xo..Xo.                  ....                  .Xoo.Xo.                .X.                    ....   ...               .XX.oooo.                  .X.          ",
"        .X. .X.                 .Xo..Xo.                .Xo..Xo.                .X. .X.                   ....                   .Xo...                 .X.                    ....   ...               ......Xo.                  .X.                  .X. .X.                .X.                      .X.                     .X. .X.                 .X.                    $$$                     .X.                      .X. .X.                                          .Xo...                 ..                                              ......Xo.                  ..           ",
"        ..  ..                  ... ...                 ... ...                 ..  ..                                           ....                   ..                                                   ...                   ..                   ..  ..                 ..                       ..                      ..  ..                  ..                     $$                      ..                       ..  ..                                           ....                                                                        ...                                ",
"                                                                                                                                                                                                                                                                                                                                                                                                                                                                                                                                                                                                ",
"                                                                                                                                                                                                                                                                                                                                                                                                                                                                                                                                                                                                ",
"                                                                                                                                                                                                                                                                                                                                                                                                                                                                                                                                                                                                "
};
