/* XPM */
static char * coin_xpm[] = {
"64 64 9 1",
" 	c None",
".	c #FFFFFF",
"+	c #FFFFFF",
"@	c #47704C",
"#	c #FFFFFF",
"$	c #FFFFFF",
"%	c #FFFFFF",
"&	c #E92800",
"*	c #FFFFFF",
"                                                                ",
"                                                                ",
"                                                                ",
"                                                                ",
"                                                                ",
"                                                                ",
"                                                                ",
"                                                                ",
"                        $..............$                        ",
"                        .**************.                        ",
"                        .**************.                        ",
"                        .**************.                        ",
"                        .**************.                        ",
"                        .**************.                        ",
"                        .**************.                        ",
"                        .**************.                        ",
"                $.......#**************#.......$                ",
"                .******************************.                ",
"                .******************************.                ",
"                .******************************.                ",
"                .******************************.                ",
"                .******************************.                ",
"                .******************************.                ",
"                .******#................#******.                ",
"        $.......#******.                .******#.......$        ",
"        .**************.                .**************.        ",
"        .**************.                .**************.        ",
"        .**************.                .**************.        ",
"        .**************.                .**************.        ",
"        .**************.                .**************.        ",
"        .**************.                .**************.        ",
"        .**************.                .**************.        ",
"        .**************.        $.......#**************.        ",
"        .**************.        .**********************.        ",
"        .**************.        .**********************.        ",
"        .**************.        .**********************.        ",
"        .**************.        .**********************.        ",
"        .**************.        .**********************.        ",
"        .**************.        .**********************.        ",
"        $.......#******.        .**************#.......$        ",
"                .******#........#**************.                ",
"                .******************************.                ",
"                .******************************.                ",
"                .******************************.                ",
"                .******************************.                ",
"                .******************************.                ",
"                .******************************.                ",
"                $.......#**************#.......$                ",
"                        .**************.                        ",
"                        .**************.                        ",
"                        .**************.                        ",
"                        .**************.                        ",
"                        .**************.                        ",
"                        .**************.                        ",
"                        .**************.                        ",
"                        $..............$                        ",
"                                                                ",
"                                                                ",
"                                                                ",
"                                                                ",
"                                                                ",
"                                                                ",
"                                                                ",
"                                                                "};
