/* XPM */
static char * meat_xpm[] = {
"32 32 14 1",
" 	c None",
".	c #47704C",
"+	c #000000",
"@	c #801536",
"#	c #9D3522",
"$	c #561308",
"%	c #CA432A",
"&	c #B19784",
"*	c #E64A4A",
"=	c #DCC1C1",
"-	c #A31717",
";	c #BE2828",
">	c #FD8888",
",	c #852514",
"                                ",
"                                ",
"                        +++     ",
"                       +===+    ",
"               ++++++  +===&+   ",
"              +%%%-*-+ +==&&&+  ",
"             +%%%-***;++==&&&+  ",
"            +%%%#-;-;*;==&&&&+  ",
"           +%%%##;***;==&++++   ",
"           +%%%##;*;*==&-+      ",
"           +%#%##-*>-=&;*;+     ",
"          +%%#####-*>;*--*;+    ",
"         ++%%#@####;*>-**-*+    ",
"       ++%%###@#####-*>-->*-+   ",
"      +%%%%####@###@@;*****;+   ",
"     +%%%%######@#@@@@-***-,+   ",
"    +%%%#%#######@@@@@@;;-,$+   ",
"    +%%#########@@@$@@@@@$$$+   ",
"    +#%##@#####@@@@@$@@$$$$+    ",
"    +####@####@@@@@@@$$$$$+     ",
"     +####@##@@@@@@@$$$+++      ",
"     +#####@#@@@@$$$$$+         ",
"      ++####@$@@@$$$++          ",
"   ++++&##@@@@$@$$$$+           ",
"  +===&&&+@@@@@$$$$+            ",
"  +===&&+ +@$$$$$$$+            ",
"  +==&&&+  +++$$$$+             ",
"   +&&&&+     ++++              ",
"    +&&&+                       ",
"     +++                        ",
"                                ",
"                                "};
