/* XPM */
static char * blue_dino01_xpm[] = {
"25 24 8 1",
" 	c None",
".	c #213038",
"+	c #437DA0",
"@	c #4D92BC",
"#	c #9A2890",
"$	c #FFFFFF",
"%	c #D8B78F",
"&	c #FFD7A8",
"                         ",
"                         ",
"                         ",
"                         ",
"      ...........        ",
"     ..+++.@@@@@@.       ",
"    .#.+$.$+@@@@@@.      ",
"    .#.+$.$+@.@@@..      ",
"    ...+$.$+@@@@@@.      ",
"     .#.++++@@@@@@.      ",
"     .#.++++@@@@@@.      ",
"     ...+++++@.....      ",
"       ..++@@@@.         ",
"        .++@@@@.         ",
"        .+%&&&&.         ",
"      ..@+%&&&&.         ",
"      .@++%&&&&.         ",
"      ..+++@%%@.         ",
"        .+@@@@@.         ",
"        .+@..+@.         ",
"        ... ...          ",
"                         ",
"                         ",
"                         "};
