/* XPM */
static char * grn_dino01_xpm[] = {
"26 24 8 1",
" 	c None",
".	c #323821",
"+	c #88A043",
"@	c #9FBC4D",
"#	c #C43F31",
"$	c #FFFFFF",
"%	c #D8B78F",
"&	c #FFD7A8",
"                          ",
"                          ",
"                          ",
"                          ",
"          .........       ",
"       ...++@@@@@@@.      ",
"      ..+++++@@+++@.      ",
"     .#.+$.$+@.@@@..      ",
"     .#.+$.$+@@@@@@.      ",
"     ...+$$$+@@@@@@.      ",
"      .#.++++@@@@@@.      ",
"      .#.+++++@@@...      ",
"      ...+++@@@..         ",
"        ..++@@@@.         ",
"         .+%&&&&.         ",
"       ..@+%&&&&.         ",
"       .@++%&&&&.         ",
"       ..+++@%%@.         ",
"         .+@@@@@.         ",
"         .+@..+@.         ",
"         ... ...          ",
"                          ",
"                          ",
"                          "};
