/* XPM */
static char * ylw_dino01_xpm[] = {
"25 24 8 1",
" 	c None",
".	c #4A3B1F",
"+	c #E5AB3D",
"@	c #FDC760",
"#	c #2379EA",
"$	c #FFFFFF",
"%	c #D8B78F",
"&	c #FFD7A8",
"                         ",
"                         ",
"                         ",
"                         ",
"      ............       ",
"     ..++++@@@@@@@.      ",
"    .#.+++++@@+++@.      ",
"    .#.+$$$+@.@@@..      ",
"    ...+$.$+@@@@@@.      ",
"     .#.$$$+@@@@@@.      ",
"     .#.++++@@@@@@.      ",
"     ...+++++@.....      ",
"       .+++@@@@.         ",
"        .++@@@@.         ",
"        .+%&&&&.         ",
"       .@+%&&&&.         ",
"      .@++%&&&&.         ",
"      ..+++@%%@.         ",
"      . .+@@@@@.         ",
"        .+@..+@.         ",
"        ... ...          ",
"                         ",
"                         ",
"                         "};
