/* XPM */
static char * brick_xpm[] = {
"32 32 7 1",
" 	c None",
".	c #FFFFFF",
"+	c #FFFFFF",
"@	c #47704C",
"#	c #FFFFFF",
"$	c #FFFFFF",
"%	c #FFFFFF",
"%%%%%%%+    +%%%%%%%%%%%%%%%%%%%",
"%%%%%%%+    +%%%%%%%%%%%%%%%%%%%",
"%%%%%%%+    +%%%%%%%%%%%%%%%%%%%",
"%%%%%%%+    +%%%%%%%%%%%%%%%%%%%",
"%%%%%%%+    +%%%%%%%%%%%%%%%%%%%",
"%%%%%%%+    +%%%%%%%%%%%%%%%%%%%",
"%%%%%%%+    +%%%%%%%%%%%%%%%%%%%",
"%%%%%%%+    +%%%%%%%%%%%%%%%%%%%",
"%%%%%%%+    +%%%%%%%%%%%%%%%%%%%",
"%%%%%%%+    +%%%%%%%%%%%%%%%%%%%",
"%%%%%%%+    +%%%%%%%%%%%%%%%%%%%",
"+++++++$    $+++++++++++++++++++",
"                                ",
"                                ",
"                                ",
"                                ",
"+++++++++++++++++++$    $+++++++",
"%%%%%%%%%%%%%%%%%%%+    +%%%%%%%",
"%%%%%%%%%%%%%%%%%%%+    +%%%%%%%",
"%%%%%%%%%%%%%%%%%%%+    +%%%%%%%",
"%%%%%%%%%%%%%%%%%%%+    +%%%%%%%",
"%%%%%%%%%%%%%%%%%%%+    +%%%%%%%",
"%%%%%%%%%%%%%%%%%%%+    +%%%%%%%",
"%%%%%%%%%%%%%%%%%%%+    +%%%%%%%",
"%%%%%%%%%%%%%%%%%%%+    +%%%%%%%",
"%%%%%%%%%%%%%%%%%%%+    +%%%%%%%",
"%%%%%%%%%%%%%%%%%%%+    +%%%%%%%",
"+++++++++++++++++++$    $+++++++",
"                                ",
"                                ",
"                                ",
"                                "};
