/* XPM */
static char *bush01_xpm[] = {
"32 33 6 1",
" 	c None",
".	c #000000",
"+	c #52A620",
"@	c #5EC025",
"#	c #49951D",
"$	c #41861A",
"                                ",
"                                ",
"             ....               ",
"      ..... .+@@+.......        ",
"     .++++..##+@####++++..      ",
"    .#++@@+####+##+#+@@++.      ",
"    .##++@+##+###+@+#@+##+..    ",
"   .++##+++#+@+##+@+#+##+##+.   ",
"  .++++##+##+@+##+@+######+@+.  ",
"  .+++######+++##+@+##+##++@@.  ",
"  .++###+++##+####+##+@+#++++.  ",
"  ..###++@@+#########+@+###++.  ",
"   .###++@@+###+++###+++#++#.   ",
" ..++##+++@+##+@@@+##+++#+@+#.  ",
" .+++++#+++##+++@@++##+##++#$.  ",
" .+++######$$#+++@+#$#######$.  ",
"  .##$$$$###$##+++##$$$$#$$$##. ",
"  .$$###$$$#$###++##$###$#####. ",
"  .######$$$$#######$###$$####. ",
" ..#####$$$$$#######$###$$$###. ",
" .##$$$$$$##$$#####$$###$$$$#.  ",
" .###$$$$####$$###$$$$#$$$#$.   ",
"  .$$$$$$####$$$$$$$##$$$###.   ",
"   .#####$##$$$##$$####$$$##.   ",
"   .#####$$$$$####$####$$$$#.   ",
"  .#$$$$$$$$$$####$####$$####.  ",
"  .####$$$$$$$####$$##$$#####.  ",
"  .#####$$$$#$$##$$$$$$$#####.  ",
"   .####$$$###$$$$##$$$$####.   ",
"   ..####...##$$$####...###..   ",
"     ....   .##...##.   ...     ",
"             ..   ..            ",
"                                "};
