/* XPM */
static char * coin_xpm[] = {
"32 32 9 1",
" 	c None",
".	c #FFFFFF",
"+	c #FFFFFF",
"@	c #47704C",
"#	c #FFFFFF",
"$	c #FFFFFF",
"%	c #FFFFFF",
"&	c #FFFFFF",
"*	c #FFFFFF",
"                                ",
"                                ",
"                                ",
"                                ",
"            %++++++%            ",
"            +******+            ",
"            +******+            ",
"            +******+            ",
"        %+++#******#+++%        ",
"        +**************+        ",
"        +**************+        ",
"        +**#++++++++#**+        ",
"    %+++#**+        +**#+++%    ",
"    +******+        +******+    ",
"    +******+        +******+    ",
"    +******+        +******+    ",
"    +******+    %+++#******+    ",
"    +******+    +**********+    ",
"    +******+    +**********+    ",
"    %+++#**+    +******#+++%    ",
"        +**#++++#******+        ",
"        +**************+        ",
"        +**************+        ",
"        %+++#******#+++%        ",
"            +******+            ",
"            +******+            ",
"            +******+            ",
"            %++++++%            ",
"                                ",
"                                ",
"                                ",
"                                "};
