/* XPM */
static char * ghost_xpm[] = {
"64 64 8 1",
" 	c None",
".	c #FFFFFF",
"+	c #FFFFFF",
"@	c #47704C",
"#	c #FFFFFF",
"$	c #FFFFFF",
"%	c #FFFFFF",
"&	c #FFFFFF",
"                                                                ",
"                                                                ",
"                                                                ",
"                                                                ",
"                                                                ",
"                                                                ",
"                                                                ",
"                                                                ",
"                                                                ",
"                                                                ",
"                                                                ",
"                                                                ",
"                                                                ",
"                                                                ",
"                                                                ",
"                                                                ",
"                        %..............%                        ",
"                        .&&&&&&&&&&&&&&.                        ",
"                        .&&&&&&&&&&&&&&.                        ",
"                        .&&&&&&&&&&&&&&.                        ",
"                        .&&&&&&&&&&&&&&.                        ",
"                        .&&&&&&&&&&&&&&.                        ",
"                        .&&&&&&&&&&&&&&.                        ",
"                        .&&&&&&&&&&&&&&.                        ",
"                %.......#&&&&&&&&&&&&&&#.......%                ",
"                .&&&&&&&&&&&&&&&&&&&&&&&&&&&&&&.                ",
"                .&&&&&&&&&&&&&&&&&&&&&&&&&&&&&&.                ",
"                .&&&&&&&&&&&&&&&&&&&&&&&&&&&&&&.                ",
"                .&&&&&&&&&&&&&&&&&&&&&&&&&&&&&&.                ",
"                .&&&&&&&&&&&&&&&&&&&&&&&&&&&&&&.                ",
"                .&&&&&&&&&&&&&&&&&&&&&&&&&&&&&&.                ",
"                .&&&&&&&&&&&&&&&&&&&&&&&&&&&&&&.                ",
"        %.......#&&&&&&&&&&&&&&&&&&&&&&&&&&&&&&#.......%        ",
"        .&&&&&&&&&&&&&&&&&&&&&&&&&&&&&&&&&&&&&&&&&&&&&&.        ",
"        .&&&&&&&&&&&&&&&&&&&&&&&&&&&&&&&&&&&&&&&&&&&&&&.        ",
"        .&&&&&&&&&&&&&&&&&&&&&&&&&&&&&&&&&&&&&&&&&&&&&&.        ",
"        .&&&&&&&&&&&&&&&&&&&&&&&&&&&&&&&&&&&&&&&&&&&&&&.        ",
"        .&&&&&&&&&&&&&&&&&&&&&&&&&&&&&&&&&&&&&&&&&&&&&&.        ",
"        .&&&&&&&&&&&&&&&&&&&&&&&&&&&&&&&&&&&&&&&&&&&&&&.        ",
"        .&&&&&&#........#&&&&&&&&&&&&&&#........#&&&&&&.        ",
"        .&&&&&&.        .&&&&&&&&&&&&&&.        .&&&&&&.        ",
"        .&&&&&&.        .&&&&&&&&&&&&&&.        .&&&&&&.        ",
"        .&&&&&&.        .&&&&&&&&&&&&&&.        .&&&&&&.        ",
"        .&&&&&&.        .&&&&&&&&&&&&&&.        .&&&&&&.        ",
"        .&&&&&&.        .&&&&&&&&&&&&&&.        .&&&&&&.        ",
"        .&&&&&&.        .&&&&&&&&&&&&&&.        .&&&&&&.        ",
"        .&&&&&&.        .&&&&&&&&&&&&&&.        .&&&&&&.        ",
"        .&&&&&&.        .&&&&&&&&&&&&&&.        .&&&&&&.        ",
"        .&&&&&&#........#&&&&&&&&&&&&&&#........#&&&&&&.        ",
"        .&&&&&&&&&&&&&&&&&&&&&&&&&&&&&&&&&&&&&&&&&&&&&&.        ",
"        .&&&&&&&&&&&&&&&&&&&&&&&&&&&&&&&&&&&&&&&&&&&&&&.        ",
"        .&&&&&&&&&&&&&&&&&&&&&&&&&&&&&&&&&&&&&&&&&&&&&&.        ",
"        .&&&&&&&&&&&&&&&&&&&&&&&&&&&&&&&&&&&&&&&&&&&&&&.        ",
"        .&&&&&&&&&&&&&&&&&&&&&&&&&&&&&&&&&&&&&&&&&&&&&&.        ",
"        .&&&&&&&&&&&&&&&&&&&&&&&&&&&&&&&&&&&&&&&&&&&&&&.        ",
"        %.......#&&&&&&#........#&&&&&&#........#&&&&&&.        ",
"                .&&&&&&.        .&&&&&&.        .&&&&&&.        ",
"                .&&&&&&.        .&&&&&&.        .&&&&&&.        ",
"                .&&&&&&.        .&&&&&&.        .&&&&&&.        ",
"                .&&&&&&.        .&&&&&&.        .&&&&&&.        ",
"                .&&&&&&.        .&&&&&&.        .&&&&&&.        ",
"                .&&&&&&.        .&&&&&&.        .&&&&&&.        ",
"                .&&&&&&.        .&&&&&&.        .&&&&&&.        ",
"                .&&&&&&.        .&&&&&&.        .&&&&&&.        "};
