/* XPM */
static char * grass01_xpm[] = {
"64 32 4 1",
" 	c None",
".	c #377D35",
"+	c #449939",
"@	c #52B33B",
"....+..............+................+...........@@.+............",
"..++....@..+......+...++..........++.......+...@@.....++........",
".++....@@.++..+++.....+....++....++.......++..@+@.....+....++...",
".+....@@......++.....+....+++....+...........@++@....+....+++...",
".....+++.....+++..........++...........@@....++++.........++....",
".....++++@....+......+++......+......+..@@@@+++.++............+.",
"..+.+.+.++@.........++++.....++...+..++..@+++.....+@.........++.",
"..+.....+++@..............+....+..+..+....@++.+.++++@.....+....+",
".+..+.+++@@@@...@@......+++......+.........@+++++.+@@@...++.....",
"....@++.....@..@@..++..+.+++..................@+@....@@..+++....",
"...@++........@+@..+................+..........@+@..............",
"...@+@..++...@++@.+..........++...+++...++......@@@..........++.",
"..@@@..++....++++...@@@@....+++...++...++...............+...+++.",
".@@....+.....+..++.@+@@@@...++.........+...............++...++..",
"...........+..+..+++@..@@@..............@..+......++...++.......",
"...++.....++..+.+.++...............++..@@.++......+.............",
"..++...+..++..+++++..++...++..+...++..@@..++.....+...++...++..+.",
"+.+..++..++..@++.....++..+++..+......@+@..+....+.....++..+++..+.",
"....++.......@+@....++.........+.@..+++@.....+++....++.........+",
"............@@@............@.....@@++.++@....+.........@........",
".+++.......@@............@@@.....@++...++@........+...@@....++..",
".++...............@@....@+@.......@++.++@@.......+...@+@...++...",
".....++..+.........@@@@.+++...@@....+++..@@.++......@+@.....+...",
"....++..+......++...@++++.+++@+@.....@+@@..++...@...+++..@@...+.",
".+..+.........++.....@+.....++@..+....@@...+....@@++.+++@+@...+.",
"..+......+.............++.+++@....+......+......@++....++@...++.",
"........++.........+...++++.+...........++.......@++.+++@....+..",
".....+.+++........++....@+@..........+.+++.........+++.+........",
".++.++.+.....+...++......@+@..+..++.++.+.....+.....@+@........+.",
".+..+.......++.......+....@@.+...+..+.......++......@@@......+..",
"++......+..+......+...+++....+..++......+..+......+..........+..",
".......++..........+.....+.............++..........+.....+......"};
